{"title":"Dishoom 2016 Movies DVDScr XviD Clean Audio New +Sample ☻rDX☻","uid":15450626,"size":738533023,"categoryP":"video","categoryS":"movies","magnet":"?xt=urn:btih:199836983b9103dcd06ef33b48e870aa1114bf88&amp;dn=Dishoom+2016+Movies+DVDScr+XviD+Clean+Audio+New+%2BSample+%E2%98%BBrDX%E2%98%BB&amp;tr=udp%3A%2F%2Ftracker.leechers-paradise.org%3A6969&amp;tr=udp%3A%2F%2Fzer0day.ch%3A1337&amp;tr=udp%3A%2F%2Fopen.demonii.com%3A1337&amp;tr=udp%3A%2F%2Ftracker.coppersurfer.tk%3A6969&amp;tr=udp%3A%2F%2Fexodus.desync.com%3A6969","seeders":0,"leechers":12,"uploader":"basicssom","files":2,"time":1469938888,"description":"----------------------------------------------------------------\r\nDishoom 2016 Hindi Movies DVDScr XviD AAC Clean Audio New Source with Sample ☻rDX☻\r\n\r\nSCREEN SHOTS &amp; POSTER:\r\n  \nhttp://mobileshosting.com/2016/7/call/index.htm  \nhttp://mobileshosting.com/2016/7/call/1.html  \nhttp://mobileshosting.com/2016/7/call/2.html  \nhttp://mobileshosting.com/2016/7/call/3.html  \nhttp://mobileshosting.com/2016/7/call/4.html  \nhttp://mobileshosting.com/2016/7/call/5.html  \nhttp://mobileshosting.com/2016/7/call/6.html  \nhttp://mobileshosting.com/2016/7/call/7.html  \nhttp://mobileshosting.com/2016/7/call/8.html  \nhttp://mobileshosting.com/2016/7/call/9.html  \nhttp://mobileshosting.com/2016/7/call/10.html\r\n\r\nFormat                                   : Matroska\r\nFormat version                           : Version 4 / Version 2\r\nFile size                                : 687 MiB\r\nDuration                                 : 2 h 0 min\r\nOverall bit rate                         : 795 kb/s\r\nMovie name                               : Dishoom 2016 Hindi Movies DVDScr XviD AAC Clean Audio New Source ☻rDX☻\r\n\r\nVideo\r\nID                                       : 1\r\nFormat                                   : MPEG-4 Visual\r\nFormat profile                           : Advanced   \r\nFormat settings, BVOP                    : 2\r\nFormat settings, QPel                    : No\r\nFormat settings, GMC                     : No warppoints\r\nFormat settings, Matrix                  : Default (H.263)\r\nCodec ID                                 : V_MS/VFW/FOURCC / XVID\r\nCodec ID/Hint                            : XviD\r\nDuration                                 : 2 h 0 min\r\nBit rate                                 : 699 kb/s\r\nWidth                                    : 640 pixels\r\nHeight                                   : 272 pixels\r\nDisplay aspect ratio                     : 2.35:1\r\nFrame rate mode                          : Constant\r\nFrame rate                               : 29.970 (29970/1000) FPS\r\nOriginal frame rate                      : 29.970 (30000/1001) FPS\r\nColor space                              : YUV\r\nChroma subsampling                       : 4:2:0\r\nBit depth                                : 8 bits\r\nScan type                                : Progressive\r\nCompression mode                         : Lossy\r\nBits/(Pixel*Frame)                       : 0.134\r\nStream size                              : 604 MiB (88%)\r\nTitle                                    : ☻rDX☻\r\nWriting library                          : XviD 67\r\nDefault                                  : Yes\r\nForced                                   : No\r\n\r\nAudio\r\nID                                       : 2\r\nFormat                                   : MPEG Audio\r\nFormat version                           : Version 1\r\nFormat profile                           : Layer 3\r\nMode                                     : Joint stereo\r\nMode extension                           : MS Stereo\r\nCodec ID                                 : A_MPEG/L3\r\nCodec ID/Hint                            : MP3\r\nDuration                                 : 2 h 0 min\r\nBit rate mode                            : Constant\r\nBit rate                                 : 80.0 kb/s\r\nChannel(s)                               : 2 channels\r\nSampling rate                            : 32.0 kHz\r\nCompression mode                         : Lossy\r\nStream size                              : 69.1 MiB (10%)\r\nTitle                                    : ☻rDX☻\r\nWriting library                          : LAME3.99r\r\nEncoding settings                        : -m j -V 4 -q 2 -lowpass 13.5 -b 80\r\nDefault                                  : Yes\r\nForced                                   : No\r\n\r\nIMDB \nhttp://www.imdb.com/title/tt3679060/","torrent":{"xt":"urn:btih:199836983b9103dcd06ef33b48e870aa1114bf88","amp;dn":"Dishoom+2016+Movies+DVDScr+XviD+Clean+Audio+New+%2BSample+%E2%98%BBrDX%E2%98%BB","amp;tr":["udp%3A%2F%2Ftracker.leechers-paradise.org%3A6969","udp%3A%2F%2Fzer0day.ch%3A1337","udp%3A%2F%2Fopen.demonii.com%3A1337","udp%3A%2F%2Ftracker.coppersurfer.tk%3A6969","udp%3A%2F%2Fexodus.desync.com%3A6969"],"infoHash":"199836983b9103dcd06ef33b48e870aa1114bf88","infoHashBuffer":{"type":"Buffer","data":[25,152,54,152,59,145,3,220,208,110,243,59,72,232,112,170,17,20,191,136]},"announce":[],"urlList":[]}}